# xmcd
#
# Track frame offsets: 
#        150
#        21478
#        35365
#        49780
#        67429
#        81241
#        99173
#        113797
#        129069
#        146560
#        162616
#        177783
#        192035
#        206578
#        219950
#        233799
#        255531
#        271029
#
# Disc length: 3815 seconds
#
# Revision: 0
# Processed by: cddbd v1.5.2PL0 Copyright (c) Steve Scherf et al.
# Submitted via: ExactAudioCopyFreeDBPlugin 1.0
#
DISCID=f90ee512
DTITLE=Various Artist - New Country - Country Heat: Backyard BBQ
DYEAR=2015
DGENRE=New Country
TTITLE0=Brad Paisley - Beat This Summer
TTITLE1=Kenny Chesney - American Kids
TTITLE2=Chase Rice - Ready Set Roll
TTITLE3=Blake Shelton - Sangria
TTITLE4=Frankie Ballard - Sunshine and Whiskey
TTITLE5=Zac Brown Band - Chicken Fried
TTITLE6=Steven Lee Olsen - Raised by a Good Time
TTITLE7=Uncle Kracker - Smile
TTITLE8=Brett Kissel - Raise Your Glass
TTITLE9=Jake Owen - Anywhere with You 
TTITLE10=Big and Rich - Save a Horse (Ride a Cowboy)
TTITLE11=Chris Young - Aw Naw
TTITLE12=Cole Swindell - Ain't Worth the Whiskey
TTITLE13=Gord Bamford - Where a Farm Used to Be
TTITLE14=Dan and Shay - Show You Off
TTITLE15=Miranda Lambert - White Liar
TTITLE16=Carrie Underwood - Good Girl
TTITLE17=Tebey - Till It's Gone
EXTD=
EXTT0=
EXTT1=
EXTT2=
EXTT3=
EXTT4=
EXTT5=
EXTT6=
EXTT7=
EXTT8=
EXTT9=
EXTT10=
EXTT11=
EXTT12=
EXTT13=
EXTT14=
EXTT15=
EXTT16=
EXTT17=
PLAYORDER=
